<svg xmlns="http://www.w3.org/2000/svg" viewBox="0 0 89.67 74.5"><defs><style>.cls-1{fill:#16171d;}.cls-2{fill:#289cff;}.cls-3{fill:#fff;}</style></defs><title>资源 4</title><g id="图层_2" data-name="图层 2"><g id="图层_1-2" data-name="图层 1"><path class="cls-1" d="M88.17,74.5a1.57,1.57,0,0,1-.67-.16L64.78,63,45.41,71.05a1.52,1.52,0,0,1-1.2,0L26.46,63,2.06,72.72a1.5,1.5,0,0,1-1.68-.39,1.52,1.52,0,0,1-.2-1.72l20-36.67a1.51,1.51,0,0,1,1.79-.7L46.44,41.4l19.48-8.12a1.52,1.52,0,0,1,1.89.64L89.47,72.26a1.5,1.5,0,0,1-1.3,2.24ZM64.83,59.83a1.44,1.44,0,0,1,.67.16l18.94,9.47L65.85,36.56,47.08,44.38a1.52,1.52,0,0,1-1,0L22.22,36.48,4.81,68.39l21.13-8.45a1.56,1.56,0,0,1,1.18,0L44.86,68,64.26,60A1.42,1.42,0,0,1,64.83,59.83Z"/><path class="cls-2" d="M83.87,19.41a18,18,0,0,0-35.94,0,17.64,17.64,0,0,0,2.43,9h0L65.9,50.75,81.47,28.36h0a17.7,17.7,0,0,0,2.42-8.95"/><path class="cls-1" d="M82.55,27.63a1.46,1.46,0,0,1-.57-.12,1.5,1.5,0,0,1-.82-2,16,16,0,0,0,1.21-6.15,1.5,1.5,0,0,1,1.5-1.5h0a1.5,1.5,0,0,1,1.5,1.49,19.13,19.13,0,0,1-1.43,7.29A1.51,1.51,0,0,1,82.55,27.63Z"/><path class="cls-1" d="M76.57,36.91a1.5,1.5,0,0,1-1.23-2.36l3.54-5.09A1.48,1.48,0,0,1,81,29.09a1.51,1.51,0,0,1,.38,2.09L77.8,36.27A1.49,1.49,0,0,1,76.57,36.91Z"/><path class="cls-1" d="M65.9,52.25h0a1.49,1.49,0,0,1-1.23-.65L49.11,29.22a1.34,1.34,0,0,1-.17-.31,19.44,19.44,0,1,1,36.43-9.5,1.5,1.5,0,0,1-3,0,16.47,16.47,0,1,0-30.72,8.2l.05.08L65.9,48.12l6.95-10a1.5,1.5,0,0,1,2.46,1.71L67.13,51.61A1.5,1.5,0,0,1,65.9,52.25Z"/><path class="cls-3" d="M65.9,28.36a9,9,0,1,1,6.35-2.62,9,9,0,0,1-6.35,2.62"/><path class="cls-1" d="M65.92,29.86h0A10.46,10.46,0,0,1,55.42,19.41,10.48,10.48,0,0,1,65.89,9h0a10.46,10.46,0,1,1,0,20.91Zm0-3h0a7.46,7.46,0,0,0,7.46-7.46A7.48,7.48,0,0,0,65.9,12h0a7.46,7.46,0,1,0,0,14.91Z"/><path class="cls-2" d="M39.14,23.15A15.1,15.1,0,1,0,11,30.68h0L24,49.48l13.08-18.8h0a15,15,0,0,0,2-7.53"/><path class="cls-1" d="M33,38.1a1.51,1.51,0,0,1-1.24-2.36l3-4.28a1.5,1.5,0,0,1,2.46,1.72l-3,4.27A1.5,1.5,0,0,1,33,38.1Z"/><path class="cls-1" d="M40.64,23.15h0a16.6,16.6,0,1,0-31.06,8.1,1.12,1.12,0,0,0,.16.28L22.81,50.34a1.5,1.5,0,0,0,2.46,0l6.88-9.88a1.5,1.5,0,1,0-2.47-1.71L24,46.86,12.31,30l0-.06a13.57,13.57,0,1,1,25.36-6.77,13.4,13.4,0,0,1-1,5.08,1.48,1.48,0,0,0,.82,1.95,1.41,1.41,0,0,0,.56.12,1.49,1.49,0,0,0,1.39-.94,16.31,16.31,0,0,0,1.22-6.2Z"/><path class="cls-3" d="M24,30.67a7.52,7.52,0,1,1,7.55-7.52A7.51,7.51,0,0,1,24,30.67"/><path class="cls-1" d="M24.06,32.17h0a9.14,9.14,0,0,1-6.38-2.63A9,9,0,0,1,24,14.13h0a9,9,0,1,1,0,18Zm0-3h0a6.08,6.08,0,0,0,4.26-1.76,6,6,0,0,0-4.27-10.28h0a6,6,0,1,0,0,12Z"/></g></g></svg>