<svg xmlns="http://www.w3.org/2000/svg" viewBox="0 0 50 68.84"><defs><style>.cls-1{fill:#289cff;}.cls-2{fill:#16171d;}.cls-3{fill:#fff;}</style></defs><title>资源 15</title><g id="图层_2" data-name="图层 2"><g id="图层_1-2" data-name="图层 1"><path class="cls-1" d="M46.5,23.15V52.53a1.81,1.81,0,0,1-1.81,1.81H13.31a1.81,1.81,0,0,1-1.81-1.81V21.84A17.26,17.26,0,0,1,29,4.84a17.25,17.25,0,0,1,17.5,17Z"/><path class="cls-2" d="M40.69,55.84H9.31A3.31,3.31,0,0,1,6,52.53V23.15a3.32,3.32,0,0,1,3.31-3.31H40.69A3.32,3.32,0,0,1,44,23.15V52.53A3.31,3.31,0,0,1,40.69,55.84Zm-31.38-33a.31.31,0,0,0-.31.31V52.53a.31.31,0,0,0,.31.31H40.69a.31.31,0,0,0,.31-.31V23.15a.31.31,0,0,0-.31-.31Z"/><path class="cls-2" d="M42.5,23.34a1.5,1.5,0,0,1-1.5-1.5A15.77,15.77,0,0,0,25,6.34,15.77,15.77,0,0,0,9,21.84a1.5,1.5,0,0,1-3,0A18.77,18.77,0,0,1,25,3.34a18.77,18.77,0,0,1,19,18.5A1.5,1.5,0,0,1,42.5,23.34Z"/><path class="cls-2" d="M45.5,49.34a4.51,4.51,0,0,1-4.5-4.5V24.34a4.5,4.5,0,0,1,9,0v20.5A4.51,4.51,0,0,1,45.5,49.34Zm0-26.5a1.5,1.5,0,0,0-1.5,1.5v20.5a1.5,1.5,0,0,0,3,0V24.34A1.5,1.5,0,0,0,45.5,22.84Z"/><path class="cls-2" d="M4.5,49.34A4.51,4.51,0,0,1,0,44.84V24.34a4.5,4.5,0,0,1,9,0v20.5A4.51,4.51,0,0,1,4.5,49.34Zm0-26.5A1.5,1.5,0,0,0,3,24.34v20.5a1.5,1.5,0,0,0,3,0V24.34A1.5,1.5,0,0,0,4.5,22.84Z"/><path class="cls-1" d="M24,54.34v10a3,3,0,0,1-3,3h0a3,3,0,0,1-3-3v-10"/><path class="cls-1" d="M40,54.34v10a3,3,0,0,1-3,3h0a3,3,0,0,1-3-3v-10"/><path class="cls-2" d="M17,68.84a4.51,4.51,0,0,1-4.5-4.5v-10a1.5,1.5,0,0,1,3,0v10a1.5,1.5,0,0,0,3,0v-10a1.5,1.5,0,0,1,3,0v10A4.51,4.51,0,0,1,17,68.84Z"/><path class="cls-2" d="M33,68.84a4.51,4.51,0,0,1-4.5-4.5v-10a1.5,1.5,0,0,1,3,0v10a1.5,1.5,0,0,0,3,0v-10a1.5,1.5,0,0,1,3,0v10A4.51,4.51,0,0,1,33,68.84Z"/><circle class="cls-3" cx="19.75" cy="15.59" r="2"/><circle class="cls-3" cx="30.25" cy="15.59" r="2"/><path class="cls-2" d="M19.38,7.29a1.49,1.49,0,0,1-1.26-.69L15.36,2.31A1.5,1.5,0,1,1,17.88.69L20.64,5a1.5,1.5,0,0,1-.44,2.07A1.47,1.47,0,0,1,19.38,7.29Z"/><path class="cls-2" d="M30.62,7.29a1.47,1.47,0,0,1-.82-.24A1.5,1.5,0,0,1,29.36,5L32.12.69a1.5,1.5,0,1,1,2.52,1.62L31.88,6.6A1.49,1.49,0,0,1,30.62,7.29Z"/></g></g></svg>