<svg xmlns="http://www.w3.org/2000/svg" viewBox="0 0 71.5 59.5"><defs><style>.cls-1{fill:#289cff;}.cls-2{fill:#16171d;}.cls-3{fill:#fff;}</style></defs><title>资源 17</title><g id="图层_2" data-name="图层 2"><g id="图层_1-2" data-name="图层 1"><path class="cls-1" d="M63.5,1.5h-48A7.76,7.76,0,0,0,7.5,9V42.47c0,4.09,3.6,7.44,8,7.44h48c4.4,0,8-3.35,8-7.44V9a7.76,7.76,0,0,0-8-7.45Z"/><path class="cls-2" d="M59.5,51.41h-48c-5.24,0-9.5-4-9.5-8.94V9A9.24,9.24,0,0,1,11.5,0h48A9.24,9.24,0,0,1,69,9V42.47C69,47.4,64.74,51.41,59.5,51.41ZM11.5,3A6.25,6.25,0,0,0,5,9V42.47a6.25,6.25,0,0,0,6.5,5.94h48A6.25,6.25,0,0,0,66,42.47V9A6.25,6.25,0,0,0,59.5,3Z"/><path class="cls-3" d="M39.1,35.83H39a1.51,1.51,0,0,1-1.33-1.25L35.05,18.84,30.73,29a1.48,1.48,0,0,1-1.47.91,1.51,1.51,0,0,1-1.35-1.1l-1.52-5.46-4.16,3.27a1.5,1.5,0,0,1-.93.32H14.1a1.5,1.5,0,0,1,0-3h6.68l5.53-4.34a1.51,1.51,0,0,1,2.37.78l1,3.5,4.66-11a1.5,1.5,0,0,1,2.86.34l2.51,15.33,2.68-7.07A1.5,1.5,0,0,1,45,21.25L48,26l1.28-2.14a1.51,1.51,0,0,1,1.29-.73H56.9a1.5,1.5,0,0,1,0,3H51.4L49.29,29.6a1.5,1.5,0,0,1-1.27.72,1.53,1.53,0,0,1-1.29-.7L44.1,25.4l-3.6,9.47A1.5,1.5,0,0,1,39.1,35.83Z"/><path class="cls-2" d="M69.5,59.5H1.5a1.5,1.5,0,0,1,0-3h68a1.5,1.5,0,0,1,0,3Z"/></g></g></svg>