<svg xmlns="http://www.w3.org/2000/svg" viewBox="0 0 71 71"><defs><style>.cls-1{fill:#fff;}.cls-2{fill:#16171d;}.cls-3{fill:#289cff;}</style></defs><title>资源 5</title><g id="图层_2" data-name="图层 2"><g id="图层_1-2" data-name="图层 1"><circle class="cls-1" cx="35.5" cy="35.5" r="34"/><path class="cls-2" d="M4,24.11A1.46,1.46,0,0,1,3.46,24,1.49,1.49,0,0,1,2.64,22,35.59,35.59,0,0,1,9.18,11.67a1.5,1.5,0,0,1,2.23,2,32.29,32.29,0,0,0-6,9.49A1.5,1.5,0,0,1,4,24.11Z"/><path class="cls-2" d="M35.5,71A35.51,35.51,0,0,1,.69,28.52a1.5,1.5,0,0,1,2.94.59A32.51,32.51,0,1,0,16.38,9.22a1.5,1.5,0,0,1-1.77-2.43A35.5,35.5,0,1,1,35.5,71Z"/><circle class="cls-3" cx="35.5" cy="35.5" r="26.52"/><path class="cls-1" d="M61.5,37.5h-6a1.5,1.5,0,0,1,0-3h6a1.5,1.5,0,0,1,0,3Z"/><path class="cls-1" d="M35.5,17A1.5,1.5,0,0,1,34,15.5v-6a1.5,1.5,0,0,1,3,0v6A1.5,1.5,0,0,1,35.5,17Z"/><path class="cls-1" d="M15.5,37.5h-6a1.5,1.5,0,0,1,0-3h6a1.5,1.5,0,0,1,0,3Z"/><path class="cls-1" d="M35.5,63A1.5,1.5,0,0,1,34,61.5v-6a1.5,1.5,0,0,1,3,0v6A1.5,1.5,0,0,1,35.5,63Z"/><path class="cls-2" d="M51.5,45a1.44,1.44,0,0,1-.67-.16L34,36.43V25.5a1.5,1.5,0,0,1,3,0v9.07l15.17,7.59A1.5,1.5,0,0,1,51.5,45Z"/></g></g></svg>