<svg xmlns="http://www.w3.org/2000/svg" viewBox="0 0 62.05 56.29"><defs><style>.cls-1{fill:#fff;}.cls-2{fill:#16171d;}.cls-3{fill:#289cff;}.cls-4{fill:#ff8533;}</style></defs><title>资源 13</title><g id="图层_2" data-name="图层 2"><g id="图层_1-2" data-name="图层 1"><path class="cls-1" d="M1.52,17.73V42.45S0,53.15,26.6,54.63s32.47-7.38,33.95-11.07V16.26S41.92,26.59,29.1,23.64c0,0-23.09-.89-26.81-8.57Z"/><path class="cls-2" d="M32.28,56.29c-1.81,0-3.73,0-5.76-.16C14.18,55.44,6,52.73,2.12,48.06A8.08,8.08,0,0,1,0,42.38V17.73a1.52,1.52,0,0,1,.06-.42l.77-2.65a1.49,1.49,0,0,1,1.31-1.08,1.51,1.51,0,0,1,1.48.84C6.36,20,23,21.9,29.15,22.14a.86.86,0,0,1,.28,0C41.56,25,59.64,15.05,59.82,15a1.5,1.5,0,0,1,2.23,1.31v27.3a1.55,1.55,0,0,1-.11.56C60.06,48.83,53.69,56.29,32.28,56.29ZM3,18.35v24.1a1.49,1.49,0,0,1,0,.21,5.33,5.33,0,0,0,1.55,3.62c2.31,2.69,8,6.07,22.14,6.85,24.5,1.36,30.77-6.24,32.36-9.87V18.72c-5.41,2.67-19.47,8.79-30.15,6.41C26.22,25,9.63,24.1,3,18.35Zm-1.5,24.1h0Z"/><ellipse class="cls-3" cx="31.03" cy="15.52" rx="29.52" ry="11.07"/><path class="cls-2" d="M31,25.14h0c-17.68,0-31-5.41-31-12.57C0,8.94,3.43,5.66,9.64,3.34,15.37,1.18,23,0,31,0h0c17.68,0,31,5.41,31,12.57,0,3.63-3.41,6.91-9.62,9.23C46.69,24,39.1,25.14,31,25.14ZM31,3C23.32,3,16.1,4.12,10.69,6.14,5.89,8,3,10.35,3,12.57c0,4.52,11.5,9.57,28,9.57h0C38.75,22.14,46,21,51.38,19c4.8-1.8,7.67-4.2,7.67-6.42C59.05,8.05,47.55,3,31,3Z"/><path class="cls-2" d="M31,41.37h0C13.35,41.37,0,36,0,28.8a1.5,1.5,0,0,1,1.5-1.5h0A1.5,1.5,0,0,1,3,28.8c0,4.53,11.5,9.57,28,9.57h0c7.71,0,14.93-1.12,20.34-3.14,4.8-1.8,7.67-4.2,7.67-6.42a1.5,1.5,0,0,1,1.5-1.5h0a1.5,1.5,0,0,1,1.5,1.5c0,3.62-3.42,6.9-9.62,9.23C46.69,40.19,39.1,41.37,31,41.37Z"/><path class="cls-2" d="M31,56.13h0c-8.06,0-15.66-1.19-21.4-3.34C3.43,50.46,0,47.19,0,43.56a1.5,1.5,0,0,1,1.5-1.5h0A1.5,1.5,0,0,1,3,43.56c0,2.22,2.87,4.62,7.68,6.42C16.1,52,23.32,53.13,31,53.13h0C38.74,53.13,46,52,51.38,50c4.8-1.81,7.67-4.21,7.67-6.43a1.5,1.5,0,0,1,1.5-1.5h0a1.5,1.5,0,0,1,1.5,1.5c0,3.63-3.42,6.91-9.62,9.23C46.69,55,39.1,56.13,31,56.13Z"/><path class="cls-2" d="M1.52,45.8A1.5,1.5,0,0,1,0,44.3V28.8a1.5,1.5,0,0,1,3,0V44.3A1.5,1.5,0,0,1,1.52,45.8Z"/><path class="cls-2" d="M1.52,30.3A1.5,1.5,0,0,1,0,28.8v-17a1.5,1.5,0,0,1,3,0v17A1.5,1.5,0,0,1,1.52,30.3Z"/><path class="cls-2" d="M60.55,29.57h0a1.5,1.5,0,0,1-1.5-1.5V11.83a1.5,1.5,0,0,1,1.5-1.5h0a1.5,1.5,0,0,1,1.5,1.5V28.07A1.5,1.5,0,0,1,60.55,29.57Z"/><path class="cls-2" d="M60.55,45.8h0a1.5,1.5,0,0,1-1.5-1.5V28.81a1.5,1.5,0,0,1,1.5-1.5h0a1.5,1.5,0,0,1,1.5,1.5V44.3A1.5,1.5,0,0,1,60.55,45.8Z"/><path class="cls-4" d="M39.88,10.68q2.77.44,5.91,1.15"/><path class="cls-1" d="M45.79,13.33a1.24,1.24,0,0,1-.33,0c-2-.45-3.93-.83-5.81-1.13a1.5,1.5,0,1,1,.46-3c2,.3,4,.7,6,1.17a1.5,1.5,0,0,1-.34,3Z"/><path class="cls-4" d="M17.75,11.83s5.57-2.78,17.43-1.73"/><path class="cls-1" d="M17.76,13.33a1.5,1.5,0,0,1-.68-2.84c.24-.12,6.09-3,18.24-1.88a1.5,1.5,0,0,1,1.36,1.62,1.52,1.52,0,0,1-1.63,1.37c-11.2-1-16.58,1.55-16.63,1.57A1.46,1.46,0,0,1,17.76,13.33Z"/></g></g></svg>