<svg xmlns="http://www.w3.org/2000/svg" viewBox="0 0 89 84.94"><defs><style>.cls-1{fill:#fff;}.cls-2{fill:#284980;}.cls-3{fill:#16171d;}.cls-4{fill:#45abff;}</style></defs><title>资源 2</title><g id="图层_2" data-name="图层 2"><g id="图层_1-2" data-name="图层 1"><path class="cls-1" d="M87.5,35.47V78a5.43,5.43,0,0,1-5.43,5.43H6.93A5.43,5.43,0,0,1,1.5,78V34.73a1,1,0,0,1,1.64-.84c6.85,5,33.14,23.75,41,23.75,8.18,0,30-8.85,41.64-22.77A1,1,0,0,1,87.5,35.47Z"/><path class="cls-2" d="M82.07,83.94H6.93A5.94,5.94,0,0,1,1,78V34.73a1.53,1.53,0,0,1,2.44-1.25c15.7,11.44,34.64,23.66,40.7,23.66,7.87,0,29.5-8.57,41.26-22.59a1.46,1.46,0,0,1,1.65-.45,1.44,1.44,0,0,1,1,1.37V78A5.94,5.94,0,0,1,82.07,83.94ZM2.54,34.18a.55.55,0,0,0-.54.55V78a4.93,4.93,0,0,0,4.93,4.93H82.07A4.93,4.93,0,0,0,87,78V35.47a.43.43,0,0,0-.29-.43.48.48,0,0,0-.55.15c-11.94,14.24-34,23-42,23S10.53,39.89,2.85,34.29A.53.53,0,0,0,2.54,34.18Z"/><path class="cls-3" d="M83.74,84.94H5.26A5.27,5.27,0,0,1,0,79.68V35.05a6.21,6.21,0,0,1,2.51-5l39-28.86a6.24,6.24,0,0,1,7.46.06L86.57,30.08A6.22,6.22,0,0,1,89,35V79.68A5.27,5.27,0,0,1,83.74,84.94ZM45.17,3a3.15,3.15,0,0,0-1.9.62L4.3,32.48A3.19,3.19,0,0,0,3,35.05V79.68a2.26,2.26,0,0,0,2.26,2.26H83.74A2.26,2.26,0,0,0,86,79.68V35a3.23,3.23,0,0,0-1.25-2.54L47.11,3.65A3.21,3.21,0,0,0,45.17,3Z"/><path class="cls-4" d="M71.73,46.18V17a5.19,5.19,0,0,0-5.19-5.19H22.46A5.19,5.19,0,0,0,17.27,17V44.51L44,58.84Z"/><path class="cls-1" d="M58.83,33.34H30.17a1.5,1.5,0,1,1,0-3H58.83a1.5,1.5,0,1,1,0,3Z"/><path class="cls-1" d="M58.83,24.74H30.17a1.5,1.5,0,0,1,0-3H58.83a1.5,1.5,0,0,1,0,3Z"/><path class="cls-1" d="M39.84,41.94H30.17a1.5,1.5,0,0,1,0-3h9.67a1.5,1.5,0,0,1,0,3Z"/><path class="cls-1" d="M51.31,41.94H47.37a1.5,1.5,0,0,1,0-3h3.94a1.5,1.5,0,0,1,0,3Z"/><path class="cls-3" d="M71.73,46.68a1.5,1.5,0,0,1-1.5-1.5V15.3a2,2,0,0,0-2-2H20.79a2,2,0,0,0-2,2V44.52a1.5,1.5,0,0,1-3,0V15.3a5,5,0,0,1,5-5H68.21a5,5,0,0,1,5,5V45.18A1.5,1.5,0,0,1,71.73,46.68Z"/><path class="cls-3" d="M88.31,33.77a1.5,1.5,0,0,0-2.11-.23c-.28.23-28.41,22.6-42.06,22.6C33.33,56.14,5.23,33.77,5,33.54a1.5,1.5,0,0,0-1.88,2.34,224.47,224.47,0,0,0,24.72,17L14.35,68.12a1.49,1.49,0,0,0,.13,2.11,1.47,1.47,0,0,0,1,.38,1.49,1.49,0,0,0,1.13-.51L30.34,54.57a.88.88,0,0,0,.12-.17c5.24,2.78,10.17,4.74,13.68,4.74,4.09,0,9.21-1.73,14.51-4.24L72.1,70.1a1.47,1.47,0,0,0,1.12.51,1.45,1.45,0,0,0,1-.38,1.49,1.49,0,0,0,.13-2.11L61.42,53.51c12.88-6.67,25.86-17,26.66-17.63A1.5,1.5,0,0,0,88.31,33.77Z"/></g></g></svg>