<svg xmlns="http://www.w3.org/2000/svg" viewBox="0 0 62.99 62.62"><defs><style>.cls-1{fill:#289cff;}.cls-2{fill:#16171d;}.cls-3{fill:#ecf0f0;}.cls-4{fill:none;}.cls-5{fill:#ff8533;}.cls-6{fill:#fff;}</style></defs><title>资源 14</title><g id="图层_2" data-name="图层 2"><g id="图层_1-2" data-name="图层 1"><path class="cls-1" d="M51.68,25.22s4.46,1.94,4.15,11.94l3.22,3.15s3.41-7.74,2.17-14.37c0,0-.11-6.22-11.41-14.47,0,0-5.59.61-5.18-5.1L40.17,2l-8.09,8,4,3.88s9.74.4,6.32,8.26L27.75,36.55l-2.81-.41L8.25,52.55S7.11,56.53,10,59a7.36,7.36,0,0,0,5.8,2.15L32.2,44.4l.31-2.76,16.7-16.32a1.54,1.54,0,0,1,2.47-.1Z"/><path class="cls-2" d="M15.55,62.62A9,9,0,0,1,9,60.05c-3.51-3-2.22-7.71-2.16-7.91a1.53,1.53,0,0,1,.39-.66L23.89,35.07a1.49,1.49,0,0,1,1.27-.41l2.06.29L41.09,21.21c.62-1.54.65-2.77.09-3.66-1.06-1.7-4.2-2.2-5.21-2.24a1.5,1.5,0,0,1-1-.43L31,11a1.51,1.51,0,0,1-.45-1.07A1.47,1.47,0,0,1,31,8.86L39.12.91a1.5,1.5,0,0,1,2.1,0L45.68,5.3a1.49,1.49,0,0,1,.45,1.18,3.27,3.27,0,0,0,.73,2.7,4.08,4.08,0,0,0,2.79.8,1.5,1.5,0,0,1,1.05.28c10.91,8,11.91,14.38,12,15.5,1.26,7-2.15,14.83-2.29,15.16a1.5,1.5,0,0,1-2.42.47l-3.22-3.16a1.47,1.47,0,0,1-.45-1.12c.26-8.65-3.25-10.51-3.28-10.53a1.52,1.52,0,0,1-.34-.22.82.82,0,0,0-.32-.2,1.54,1.54,0,0,1-.17.19l0,0-16.31,16-.25,2.23a1.49,1.49,0,0,1-.42.88L16.89,62.17a1.48,1.48,0,0,1-1,.45ZM9.62,53.31A4.77,4.77,0,0,0,11,57.82a1.8,1.8,0,0,1,.19.2,5.83,5.83,0,0,0,4,1.6l15.58-15.9L31,41.47a1.48,1.48,0,0,1,.44-.9L48.09,24.31a3,3,0,0,1,2-1.13A3.25,3.25,0,0,1,52.5,24c1.08.58,5,3.31,4.84,12.58l1.1,1.09c.87-2.63,2.07-7.31,1.3-11.41a2.11,2.11,0,0,1,0-.25s-.4-5.55-10.37-13h0a6.64,6.64,0,0,1-4.56-1.66A5.78,5.78,0,0,1,43.11,7L40.17,4.09l-6,5.84,2.47,2.43c1.52.15,5.29.82,7,3.6,1.15,1.82,1.15,4.08,0,6.7a1.27,1.27,0,0,1-.32.47L28.8,37.61a1.49,1.49,0,0,1-1.27.42l-2.07-.3Z"/><path class="cls-3" d="M20.07,27.05l5.29,5.21,7.15-7L27,19.82c5.81-13-10.89-18.15-10.89-18.15C13,.85,13.64,3.2,13.64,3.2c6.54,5.3,5.49,7,5.49,7a11.33,11.33,0,0,1-6.21,8.47c-5.4,2.23-9.85-5.21-9.85-5.21-1.76-.3-1.56,1.63-1.56,1.63C5.87,34,20.07,27.05,20.07,27.05Z"/><path class="cls-2" d="M25.36,33.76a1.48,1.48,0,0,1-1.05-.43l-4.59-4.51a14.54,14.54,0,0,1-10.95-.21c-4.24-2-7.18-6.44-8.72-13.14a.57.57,0,0,1,0-.18,3.26,3.26,0,0,1,.87-2.63A2.73,2.73,0,0,1,3.33,12a1.5,1.5,0,0,1,1,.7c0,.07,3.85,6.3,8,4.59A9.75,9.75,0,0,0,17.65,10l0-.18c-.07-.32-.65-2-5-5.48a1.57,1.57,0,0,1-.51-.78,3,3,0,0,1,.66-2.8c.81-.81,2-1,3.66-.57.43.13,9.15,2.86,12.2,9.55a12.24,12.24,0,0,1,.08,9.69l4.77,4.69a1.5,1.5,0,0,1,0,2.14l-7.15,7A1.48,1.48,0,0,1,25.36,33.76Zm-5.29-8.21a1.48,1.48,0,0,1,1.05.43l4.24,4.18,5-4.94L26,20.89a1.49,1.49,0,0,1-.32-1.68A9.72,9.72,0,0,0,26,11C23.75,6.14,17.39,3.69,16,3.2c4.46,3.91,5.08,6.18,4.62,7.45a12.84,12.84,0,0,1-7.07,9.44C9.11,21.91,5.41,18.8,3.4,16.46c1.39,4.82,3.62,8,6.66,9.44,4.49,2.13,9.3-.17,9.35-.19A1.43,1.43,0,0,1,20.07,25.55ZM17.84,9.47h0Zm0,0Zm0,0h0Zm0,0Zm0,0Zm0,0h0Z"/><path class="cls-3" d="M60.42,52.5,45,37.91a1.44,1.44,0,0,0-2,0l-5.24,5.15a1.45,1.45,0,0,0,0,2L52.32,60.36a1.52,1.52,0,0,0,.92.47,1.17,1.17,0,0,0,.77-.28l6.54-6.43a1,1,0,0,0,.27-.76,1.18,1.18,0,0,0-.4-.86Z"/><path class="cls-2" d="M53.24,62.33a3,3,0,0,1-2-.93L36.66,46.15A3,3,0,0,1,36.72,42L42,36.86a2.92,2.92,0,0,1,4.08,0l2.5,2.36a1.5,1.5,0,0,1-2.07,2.18L44,39l-5.16,5.16,14.44,15,5.9-5.8-9.53-9a1.5,1.5,0,1,1,2.06-2.18l9.74,9.18a2.69,2.69,0,0,1,.88,2,2.5,2.5,0,0,1-.72,1.84l-6.54,6.42A2.61,2.61,0,0,1,53.24,62.33Zm6.23-8.68h0Z"/><path class="cls-1" d="M55.24,52.66l-.57,1.73a.57.57,0,0,1-.51.36H52.31a.56.56,0,0,1-.51-.36l-.56-1.73a.55.55,0,0,1,.19-.59L52.93,51a.56.56,0,0,1,.63,0l1.5,1.06a.57.57,0,0,1,.18.59Z"/><g id="SVGID"><rect class="cls-4" x="1.5" y="1.51" width="60" height="59.69"/></g><line class="cls-5" x1="14.28" y1="54.75" x2="19.53" y2="49.5"/><path class="cls-6" d="M14.28,55.75a1,1,0,0,1-.71-.29,1,1,0,0,1,0-1.41l5.25-5.25a1,1,0,1,1,1.42,1.41L15,55.46A1,1,0,0,1,14.28,55.75Z"/><line class="cls-5" x1="22.53" y1="46.5" x2="24.78" y2="44.25"/><path class="cls-6" d="M22.53,47.5a1,1,0,0,1-.71-.29,1,1,0,0,1,0-1.41l2.25-2.25A1,1,0,1,1,25.49,45l-2.25,2.25A1,1,0,0,1,22.53,47.5Z"/></g></g></svg>