<svg xmlns="http://www.w3.org/2000/svg" viewBox="0 0 69.5 55"><defs><style>.cls-1{fill:#289cff;}.cls-2{fill:#16171d;}.cls-3{fill:#fff;}</style></defs><title>资源 19</title><g id="图层_2" data-name="图层 2"><g id="图层_1-2" data-name="图层 1"><path class="cls-1" d="M61.5,1.5h-48a8,8,0,0,0-8,8v36a8,8,0,0,0,8,8h48a8,8,0,0,0,8-8V9.5a8,8,0,0,0-8-8Z"/><path class="cls-2" d="M57.5,55H9.5A9.51,9.51,0,0,1,0,45.5V9.5A9.51,9.51,0,0,1,9.5,0h48A9.51,9.51,0,0,1,67,9.5v36A9.51,9.51,0,0,1,57.5,55ZM9.5,3A6.51,6.51,0,0,0,3,9.5v36A6.51,6.51,0,0,0,9.5,52h48A6.51,6.51,0,0,0,64,45.5V9.5A6.51,6.51,0,0,0,57.5,3Z"/><path class="cls-2" d="M65.5,19.29H2.31a1.5,1.5,0,0,1,0-3H65.5a1.5,1.5,0,0,1,0,3Z"/><path class="cls-2" d="M38.31,29.29h-26a1.5,1.5,0,0,1,0-3h26a1.5,1.5,0,0,1,0,3Z"/><path class="cls-2" d="M28.31,38.29h-16a1.5,1.5,0,0,1,0-3h16a1.5,1.5,0,0,1,0,3Z"/><circle class="cls-3" cx="13.31" cy="11.01" r="2.5"/><circle class="cls-3" cx="20.31" cy="11.01" r="2.5"/><circle class="cls-3" cx="27.31" cy="11.01" r="2.5"/></g></g></svg>