<svg xmlns="http://www.w3.org/2000/svg" viewBox="0 0 63 62.43"><defs><style>.cls-1{fill:#289cff;}.cls-2{fill:#16171d;}.cls-3{fill:#fff;}.cls-4{fill:#ecf0f0;}</style></defs><title>资源 9</title><g id="图层_2" data-name="图层 2"><g id="图层_1-2" data-name="图层 1"><path class="cls-1" d="M41.13,60.93H7.64A2.14,2.14,0,0,1,5.5,58.79V13.61a2.14,2.14,0,0,1,1.53-2l33.49-10a2.13,2.13,0,0,1,2.75,2.05V58.79a2.14,2.14,0,0,1-2.14,2.14Z"/><path class="cls-2" d="M37.13,62.43H3.64A3.64,3.64,0,0,1,0,58.79V42.33a2.11,2.11,0,0,1,0-.26,2.11,2.11,0,0,1,0-.26V13.61a3.65,3.65,0,0,1,2.6-3.48L36.09.15a3.64,3.64,0,0,1,4.68,3.49V58.79A3.64,3.64,0,0,1,37.13,62.43ZM3,42.07a2.11,2.11,0,0,1,0,.26V58.79a.64.64,0,0,0,.64.64H37.13a.64.64,0,0,0,.64-.64V3.64a.64.64,0,0,0-.26-.51A.63.63,0,0,0,37,3L3.46,13a.64.64,0,0,0-.46.61v28.2A2.11,2.11,0,0,1,3,42.07Z"/><path class="cls-3" d="M59.36,60.93H37.13A2.14,2.14,0,0,1,35,58.79V20.3a2.14,2.14,0,0,1,2.78-2l22.23,7a2.15,2.15,0,0,1,1.5,2V58.79a2.14,2.14,0,0,1-2.14,2.14Z"/><path class="cls-2" d="M59.36,62.43H37.13a3.64,3.64,0,0,1-3.64-3.64V20.3a3.64,3.64,0,0,1,4.73-3.47l22.23,7A3.63,3.63,0,0,1,63,27.26V58.79A3.64,3.64,0,0,1,59.36,62.43ZM37.13,19.66a.67.67,0,0,0-.38.13.64.64,0,0,0-.26.51V58.79a.64.64,0,0,0,.64.64H59.36a.64.64,0,0,0,.64-.64V27.26a.64.64,0,0,0-.45-.61l-22.23-7A.63.63,0,0,0,37.13,19.66Z"/><rect class="cls-4" x="15.69" y="17.18" width="9.01" height="9.01" rx="1.75" ry="1.75"/><path class="cls-2" d="M23,27.69H17.44a3.26,3.26,0,0,1-3.25-3.25V18.93a3.26,3.26,0,0,1,3.25-3.25H23a3.26,3.26,0,0,1,3.25,3.25v5.51A3.26,3.26,0,0,1,23,27.69Zm-5.51-9a.26.26,0,0,0-.25.25v5.51a.26.26,0,0,0,.25.25H23a.26.26,0,0,0,.25-.25V18.93a.26.26,0,0,0-.25-.25Z"/><rect class="cls-4" x="15.69" y="31.07" width="9.01" height="9.01" rx="1.75" ry="1.75"/><path class="cls-2" d="M23,41.57H17.44a3.25,3.25,0,0,1-3.25-3.25v-5.5a3.25,3.25,0,0,1,3.25-3.25H23a3.25,3.25,0,0,1,3.25,3.25v5.5A3.25,3.25,0,0,1,23,41.57Zm-5.51-9a.25.25,0,0,0-.25.25v5.5a.25.25,0,0,0,.25.25H23a.25.25,0,0,0,.25-.25v-5.5a.25.25,0,0,0-.25-.25Z"/><rect class="cls-4" x="15.69" y="44.95" width="9.01" height="9.01" rx="1.75" ry="1.75"/><path class="cls-2" d="M23,55.46H17.44a3.26,3.26,0,0,1-3.25-3.25V46.7a3.26,3.26,0,0,1,3.25-3.25H23A3.26,3.26,0,0,1,26.2,46.7v5.51A3.26,3.26,0,0,1,23,55.46Zm-5.51-9a.26.26,0,0,0-.25.25v5.51a.26.26,0,0,0,.25.25H23a.26.26,0,0,0,.25-.25V46.7a.26.26,0,0,0-.25-.25Z"/><path class="cls-2" d="M55,37.45H41.46a1.5,1.5,0,1,1,0-3H55a1.5,1.5,0,1,1,0,3Z"/><path class="cls-2" d="M55,45.7H41.46a1.5,1.5,0,1,1,0-3H55a1.5,1.5,0,1,1,0,3Z"/><path class="cls-2" d="M55,54H53.25a1.5,1.5,0,0,1,0-3H55a1.5,1.5,0,0,1,0,3Z"/><path class="cls-2" d="M47.25,54H41.46a1.5,1.5,0,0,1,0-3h5.79a1.5,1.5,0,0,1,0,3Z"/></g></g></svg>