<svg xmlns="http://www.w3.org/2000/svg" viewBox="0 0 65.5 65.6"><defs><style>.cls-1{fill:#289cff;}.cls-2{fill:#16171d;}.cls-3{fill:#fff;}</style></defs><title>资源 12</title><g id="图层_2" data-name="图层 2"><g id="图层_1-2" data-name="图层 1"><path class="cls-1" d="M65.21,55.65l-10-17.36a11,11,0,0,0-6.65-5.12,3.41,3.41,0,0,0,.61-1.8L50.43,6.44a4.71,4.71,0,1,0-9.4,0l1.23,24.93a3.41,3.41,0,0,0,.61,1.8,11,11,0,0,0-6.65,5.12l-10,17.36a2.15,2.15,0,0,0,1.87,3.22H63.35a2.15,2.15,0,0,0,1.86-3.22Z"/><path class="cls-2" d="M60.3,60.37H25.06a3.65,3.65,0,0,1-3.17-5.46l10-17.37a12.63,12.63,0,0,1,5.95-5.26,4.83,4.83,0,0,1-.11-.84L36.48,6.52a6.21,6.21,0,1,1,12.4,0L47.65,31.45a5.71,5.71,0,0,1-.11.83,12.63,12.63,0,0,1,6,5.26l10,17.37a3.64,3.64,0,0,1-3.16,5.46ZM42.68,3a3.12,3.12,0,0,0-2.32,1,3.19,3.19,0,0,0-.89,2.37L40.7,31.3a2,2,0,0,0,.35,1,1.5,1.5,0,0,1,.18,1.36,1.52,1.52,0,0,1-1,.94A9.52,9.52,0,0,0,34.47,39l-10,17.36a.65.65,0,0,0,.57,1H60.3a.62.62,0,0,0,.57-.33.66.66,0,0,0,0-.64h0L50.88,39a9.47,9.47,0,0,0-5.73-4.42,1.52,1.52,0,0,1-1-.94,1.47,1.47,0,0,1,.18-1.36,2,2,0,0,0,.34-1L45.89,6.37A3.21,3.21,0,0,0,42.68,3Z"/><path class="cls-3" d="M40.77,60.88l-10-17.36a11,11,0,0,0-6.65-5.12,3.5,3.5,0,0,0,.62-1.8L26,11.67a4.71,4.71,0,1,0-9.4,0L17.82,36.6a3.41,3.41,0,0,0,.61,1.8,11,11,0,0,0-6.65,5.12l-10,17.36A2.13,2.13,0,0,0,1.8,63,2.1,2.1,0,0,0,3.66,64.1H38.91A2.13,2.13,0,0,0,40.77,63a2.15,2.15,0,0,0,0-2.14Z"/><path class="cls-2" d="M38.91,65.6H3.66A3.61,3.61,0,0,1,.5,63.77a3.59,3.59,0,0,1,0-3.64l10-17.36a12.63,12.63,0,0,1,5.95-5.26,4.59,4.59,0,0,1-.11-.84L15.09,11.75a6.21,6.21,0,1,1,12.4,0L26.26,36.68a5.72,5.72,0,0,1-.12.83,12.59,12.59,0,0,1,6,5.26l10,17.36h0a3.65,3.65,0,0,1-3.16,5.47ZM21.29,8.23a3.23,3.23,0,0,0-3.21,3.37l1.23,24.93a2,2,0,0,0,.35,1,1.47,1.47,0,0,1,.18,1.36,1.52,1.52,0,0,1-1,.94,9.52,9.52,0,0,0-5.74,4.42l-10,17.36a.6.6,0,0,0,0,.63.64.64,0,0,0,.57.34H38.91a.63.63,0,0,0,.56-.33.61.61,0,0,0,0-.64l-10-17.36a9.52,9.52,0,0,0-5.74-4.42,1.52,1.52,0,0,1-1-.94,1.5,1.5,0,0,1,.18-1.36,2,2,0,0,0,.35-1L24.5,11.6a3.23,3.23,0,0,0-3.21-3.37Z"/><path class="cls-2" d="M14.76,65.6l-.23,0a1.5,1.5,0,0,1-1.26-1.71l2.16-14.4a1.5,1.5,0,1,1,3,.44L16.24,64.32A1.5,1.5,0,0,1,14.76,65.6Z"/><path class="cls-2" d="M29.12,64.92a1.5,1.5,0,0,1-1.42-1L23.12,50.16A1.5,1.5,0,0,1,26,49.21l4.57,13.73a1.51,1.51,0,0,1-1.42,2Z"/><path class="cls-2" d="M62.45,58.05a1.5,1.5,0,0,1-1.37-.9h0c0-.08-3.74-8.38-11.64-11.28-4.84-1.77-10.31-1.19-16.25,1.72a1.5,1.5,0,1,1-1.32-2.69c6.72-3.3,13-3.91,18.63-1.83C59.61,46.42,63.66,55.57,63.83,56a1.51,1.51,0,0,1-.78,2A1.57,1.57,0,0,1,62.45,58.05Z"/><path class="cls-3" d="M49.47,55.76H42.85a1.5,1.5,0,0,1,0-3h6.62a1.5,1.5,0,0,1,0,3Z"/><path class="cls-3" d="M55.05,55.76h-.53a1.5,1.5,0,0,1,0-3h.53a1.5,1.5,0,0,1,0,3Z"/></g></g></svg>