<svg xmlns="http://www.w3.org/2000/svg" viewBox="0 0 69.48 76.38"><defs><style>.cls-1{fill:#289cff;}.cls-2{fill:#16171d;}.cls-3{fill:#fff;}</style></defs><title>资源 16</title><g id="图层_2" data-name="图层 2"><g id="图层_1-2" data-name="图层 1"><path class="cls-1" d="M67.28,52.16,66.87,52h0c-1.41-.61-7.53-3.67-7.62-10.92-.05-6.19,4.87-9.52,6.4-10.41l2.46-1.48-1.61-2.33c-4.79-6.51-12-7.52-15-7.65-.43,0-.87-.06-1.3-.06a26.19,26.19,0,0,0-9,2.06l-.16.06a15.37,15.37,0,0,1-3.41,1,14.21,14.21,0,0,1-3.31-.93l-.18-.07a22,22,0,0,0-8.06-1.91H25.8a20.39,20.39,0,0,0-17,9.56c-6.62,10.74-2.54,26.8,4.65,36.45,2.6,3.55,6.94,9.5,13.12,9.5h.32a16.17,16.17,0,0,0,5.85-1.39l.41-.16a13.29,13.29,0,0,1,5.37-1.18,12.59,12.59,0,0,1,5.31,1.21,15.63,15.63,0,0,0,6.24,1.41h.31c6.27-.06,10-5.14,13-9.22a39.54,39.54,0,0,0,5.27-10.06l.82-2.31Z"/><path class="cls-2" d="M22.6,76.38c-6.94,0-11.56-6.33-14.33-10.11C.79,56.23-3.42,39.45,3.55,28.15A21.87,21.87,0,0,1,21.78,17.87H22a23,23,0,0,1,8.63,2l.13,0a16.29,16.29,0,0,0,2.81.85,19.72,19.72,0,0,0,2.89-.92l.16-.06a27.47,27.47,0,0,1,9.51-2.15,13.56,13.56,0,0,1,1.43.07c3.06.13,10.9,1.21,16.08,8.25l1.64,2.36a1.52,1.52,0,0,1,.23,1.17,1.48,1.48,0,0,1-.7,1L62.38,32c-1.36.79-5.71,3.74-5.67,9.12.07,6.12,5.18,8.86,6.56,9.48l.15.05.42.17.07,0,2.2,1a1.49,1.49,0,0,1,.79,1.86L66.07,56a40.73,40.73,0,0,1-5.46,10.43c-3,4.12-7.16,9.77-14.19,9.84H46.1a17.05,17.05,0,0,1-6.79-1.52,11.26,11.26,0,0,0-4.76-1.1,12,12,0,0,0-4.83,1.08l-.41.15A17.52,17.52,0,0,1,23,76.38Zm-.55-55.51h-.24A18.86,18.86,0,0,0,6.1,29.73C-.17,39.89,3.78,55.22,10.69,64.49c2.43,3.33,6.49,8.89,11.91,8.89h.3a14.38,14.38,0,0,0,5.31-1.29l.42-.16a14.86,14.86,0,0,1,5.92-1.28A14.22,14.22,0,0,1,40.44,72a14,14,0,0,0,5.66,1.3h.28c5.54-.06,8.87-4.6,11.8-8.61a37,37,0,0,0,5-9.64L63.61,54l-1.15-.51-.23-.08c-1.41-.6-8.42-4-8.52-12.27-.06-7,5.45-10.75,7.14-11.73l1.08-.64-.71-1c-4.38-6-11.13-6.88-13.83-7-.45,0-.84-.06-1.23-.06a24.86,24.86,0,0,0-8.48,2l-.16.06a14.25,14.25,0,0,1-3.92,1.1,13.12,13.12,0,0,1-3.81-1l-.18-.06A20.66,20.66,0,0,0,22.05,20.87Z"/><path class="cls-3" d="M20.48,66.88a1.52,1.52,0,0,1-1.2-.6A43.32,43.32,0,0,1,11,42a1.52,1.52,0,0,1,1.49-1.51h0A1.5,1.5,0,0,1,14,42a40,40,0,0,0,7.71,22.5,1.51,1.51,0,0,1-.31,2.1A1.49,1.49,0,0,1,20.48,66.88Z"/><path class="cls-3" d="M13.22,36.82a1.34,1.34,0,0,1-.35,0A1.48,1.48,0,0,1,11.76,35a23,23,0,0,1,2.79-6.82,1.5,1.5,0,0,1,2.55,1.57,20.34,20.34,0,0,0-2.43,5.94A1.5,1.5,0,0,1,13.22,36.82Z"/><path class="cls-2" d="M33,22.16a14.76,14.76,0,0,1-1.5-.08l-.93-.1h-.12l-2-.38a1.5,1.5,0,0,1-1.22-1.38l-.13-2.06c-.24-5.5,3.06-10.4,6.22-13.16A21.07,21.07,0,0,1,47.22,0l2.33.07A1.51,1.51,0,0,1,51,1.52L51.13,4a18.26,18.26,0,0,1-6.08,13.34A18.45,18.45,0,0,1,33,22.16Zm-2-3.15.86.09a11.42,11.42,0,0,0,1.19.06,15.32,15.32,0,0,0,10-4.08,15.2,15.2,0,0,0,5.11-11l-.05-1-1,0A18.08,18.08,0,0,0,35.26,7.24c-2.64,2.31-5.4,6.35-5.21,10.75l.06.86Z"/></g></g></svg>