<svg xmlns="http://www.w3.org/2000/svg" viewBox="0 0 66.46 67.97"><defs><style>.cls-1{fill:#289cff;}.cls-2{fill:#16171d;}.cls-3{fill:#fff;}</style></defs><title>资源 10</title><g id="图层_2" data-name="图层 2"><g id="图层_1-2" data-name="图层 1"><path class="cls-1" d="M5.5,21.19H57.58a0,0,0,0,1,0,0V40.43a26,26,0,0,1-26,26h0a26,26,0,0,1-26-26V21.19A0,0,0,0,1,5.5,21.19Z"/><path class="cls-2" d="M27.54,68A27.57,27.57,0,0,1,0,40.43V19.69H55.08V40.43A27.57,27.57,0,0,1,27.54,68ZM3,22.69V40.43a24.54,24.54,0,0,0,49.08,0V22.69Z"/><path class="cls-3" d="M46,50.85a1.41,1.41,0,0,1-.52-.1,1.5,1.5,0,0,1-.89-1.92A24.3,24.3,0,0,0,46,42.15a1.49,1.49,0,0,1,1.6-1.39,1.51,1.51,0,0,1,1.4,1.6,27.09,27.09,0,0,1-1.61,7.5A1.5,1.5,0,0,1,46,50.85Z"/><path class="cls-3" d="M47.58,38.37a1.5,1.5,0,0,1-1.5-1.5V27.62a1.5,1.5,0,0,1,3,0v9.25A1.5,1.5,0,0,1,47.58,38.37Z"/><path class="cls-2" d="M12.81,16.09a1.5,1.5,0,0,1-1.19-2.4L21.43.6a1.5,1.5,0,1,1,2.4,1.8L14,15.49A1.52,1.52,0,0,1,12.81,16.09Z"/><path class="cls-2" d="M25.9,16.09a1.49,1.49,0,0,1-.93-.33,1.51,1.51,0,0,1-.24-2.11l6.55-8.18a1.5,1.5,0,1,1,2.34,1.88l-6.54,8.18A1.52,1.52,0,0,1,25.9,16.09Z"/><path class="cls-2" d="M37.36,16.09a1.52,1.52,0,0,1-1-.36,1.5,1.5,0,0,1-.16-2.12l4.91-5.72a1.5,1.5,0,1,1,2.28,2L38.5,15.57A1.52,1.52,0,0,1,37.36,16.09Z"/><path class="cls-2" d="M54.71,43.19a1.5,1.5,0,0,1,0-3,8.75,8.75,0,1,0,0-17.5,1.5,1.5,0,0,1,0-3,11.75,11.75,0,0,1,0,23.5Z"/><path class="cls-2" d="M15.71,36.75a1.5,1.5,0,0,1-1.5-1.5v-2a1.5,1.5,0,0,1,3,0v2A1.5,1.5,0,0,1,15.71,36.75Z"/><path class="cls-2" d="M35.21,36.75a1.5,1.5,0,0,1-1.5-1.5v-2a1.5,1.5,0,0,1,3,0v2A1.5,1.5,0,0,1,35.21,36.75Z"/><path class="cls-2" d="M25.63,50.06h-.2c-4-.12-6.62-4.06-6.73-4.23a1.5,1.5,0,0,1,2.5-1.65c.05.07,1.92,2.82,4.34,2.88,1.46.06,3-.95,4.47-2.95a1.5,1.5,0,0,1,2.4,1.8C30.34,48.66,28.06,50.06,25.63,50.06Z"/></g></g></svg>