<svg xmlns="http://www.w3.org/2000/svg" viewBox="0 0 71.5 62.94"><defs><style>.cls-1{fill:#16171d;}.cls-2{fill:#289cff;}.cls-3{fill:#243154;}.cls-4{fill:#fff;}</style></defs><title>资源 8</title><g id="图层_2" data-name="图层 2"><g id="图层_1-2" data-name="图层 1"><path class="cls-1" d="M12.62,45.62a1.5,1.5,0,0,1-1.5-1.5V39.73a1.5,1.5,0,0,1,3,0v4.39A1.51,1.51,0,0,1,12.62,45.62Z"/><path class="cls-1" d="M10.76,62.94H3.35A3.51,3.51,0,0,1,0,59.3V27.16a3.51,3.51,0,0,1,3.35-3.65h7.41a3.52,3.52,0,0,1,3.36,3.65V35a1.5,1.5,0,0,1-3,0V27.16c0-.4-.23-.65-.36-.65H3.35c-.12,0-.35.25-.35.65V59.3c0,.39.23.64.35.64h7.41c.13,0,.36-.25.36-.64V48.85a1.5,1.5,0,0,1,3,0V59.3A3.52,3.52,0,0,1,10.76,62.94Z"/><path class="cls-2" d="M60,61.44H25.39a2.3,2.3,0,0,1-2.3-2.31v-32a6.34,6.34,0,0,1,1.42-4L38,4.18A7.14,7.14,0,0,1,43.52,1.5h4.93A4.73,4.73,0,0,1,52,3.07a4.2,4.2,0,0,1,1,3.34,2.09,2.09,0,0,1-.08.34L49.2,19.94H64.58a6.76,6.76,0,0,1,6.92,6.57V50.63c0,5.95-5.17,10.81-11.53,10.81Z"/><path class="cls-1" d="M55.2,62.94H20.62a3.81,3.81,0,0,1-3.8-3.81v-32a7.86,7.86,0,0,1,1.76-4.94L32,3.31A8.64,8.64,0,0,1,38.75,0h4.93a6.22,6.22,0,0,1,4.68,2.08A5.63,5.63,0,0,1,49.75,6.6a3.19,3.19,0,0,1-.12.6L46.41,18.44h13.4a8.26,8.26,0,0,1,8.42,8.07V50.63C68.23,57.42,62.39,62.94,55.2,62.94ZM38.75,3a5.62,5.62,0,0,0-4.4,2.12L21,24a5,5,0,0,0-1.15,3.13v32a.8.8,0,0,0,.8.81H55.2c5.53,0,10-4.18,10-9.31V26.51a5.26,5.26,0,0,0-5.42-5.07H42.44L46.78,6.21a2.67,2.67,0,0,0-.67-2.15A3.23,3.23,0,0,0,43.68,3Z"/><path class="cls-3" d="M43.8,6.13h0Z"/><path class="cls-4" d="M29.18,56.58a1.5,1.5,0,0,1-1.5-1.5V38.86a1.5,1.5,0,0,1,3,0V55.08A1.5,1.5,0,0,1,29.18,56.58Z"/><path class="cls-4" d="M29.18,34.34a1.5,1.5,0,0,1-1.5-1.5V29a1.5,1.5,0,0,1,3,0v3.84A1.5,1.5,0,0,1,29.18,34.34Z"/></g></g></svg>