<svg xmlns="http://www.w3.org/2000/svg" viewBox="0 0 63.43 61.01"><defs><style>.cls-1{fill:#289cff;}.cls-2{fill:#16171d;}.cls-3{fill:#fff;}</style></defs><title>资源 11</title><g id="图层_2" data-name="图层 2"><g id="图层_1-2" data-name="图层 1"><path class="cls-1" d="M57,59.51H12a3.91,3.91,0,0,1-3.9-3.65L5.51,15.66a3.91,3.91,0,0,1,3.9-4.17H59.52a3.91,3.91,0,0,1,3.9,4.17l-2.55,40.2A3.91,3.91,0,0,1,57,59.51Z"/><path class="cls-2" d="M53,61H8a5.42,5.42,0,0,1-5.4-5L0,15.75A5.41,5.41,0,0,1,5.41,10H55.52a5.39,5.39,0,0,1,5.39,5.77L58.36,56A5.43,5.43,0,0,1,53,61ZM5.41,13a2.4,2.4,0,0,0-1.76.76A2.37,2.37,0,0,0,3,15.56L5.56,55.77A2.41,2.41,0,0,0,8,58H53a2.41,2.41,0,0,0,2.41-2.25l2.55-40.2a2.37,2.37,0,0,0-.64-1.81A2.4,2.4,0,0,0,55.52,13Z"/><path class="cls-3" d="M35.91,49.1H14.84a1.5,1.5,0,1,1,0-3H35.91a1.5,1.5,0,0,1,0,3Z"/><path class="cls-3" d="M49.56,49.1h-7.1a1.5,1.5,0,0,1,0-3h7.1a1.5,1.5,0,0,1,0,3Z"/><path class="cls-2" d="M43.91,17.85a1.5,1.5,0,0,1-1.5-1.5V6.62A3.63,3.63,0,0,0,38.79,3H22.14a3.63,3.63,0,0,0-3.62,3.62v9.73a1.5,1.5,0,0,1-3,0V6.62A6.63,6.63,0,0,1,22.14,0H38.79a6.63,6.63,0,0,1,6.62,6.62v9.73A1.5,1.5,0,0,1,43.91,17.85Z"/><circle class="cls-2" cx="16.86" cy="18.76" r="3"/><circle class="cls-2" cx="43.86" cy="18.76" r="3"/></g></g></svg>