<svg xmlns="http://www.w3.org/2000/svg" viewBox="0 0 90.99 77.39"><defs><style>.cls-1{fill:#fff;}.cls-2{fill:#16171d;}.cls-3{fill:#289cff;}</style></defs><title>资源 3</title><g id="图层_2" data-name="图层 2"><g id="图层_1-2" data-name="图层 1"><path class="cls-1" d="M40.82,60.48H68A12.12,12.12,0,0,0,80.13,48.35V13.62A12.12,12.12,0,0,0,68,1.5H13.62A12.12,12.12,0,0,0,1.5,13.62V48.35A12.13,12.13,0,0,0,13.62,60.48h8.52V73.25Z"/><path class="cls-2" d="M22.14,74.75a1.45,1.45,0,0,1-.7-.17,1.51,1.51,0,0,1-.8-1.33V62h-7A13.64,13.64,0,0,1,0,48.35V13.62A13.64,13.64,0,0,1,13.62,0H68A13.64,13.64,0,0,1,81.63,13.62V48.35A13.64,13.64,0,0,1,68,62H41.28L23,74.49A1.47,1.47,0,0,1,22.14,74.75ZM13.62,3A10.64,10.64,0,0,0,3,13.62V48.35A10.64,10.64,0,0,0,13.62,59h8.52a1.5,1.5,0,0,1,1.5,1.5v9.93L40,59.24a1.52,1.52,0,0,1,.85-.26H68A10.64,10.64,0,0,0,78.63,48.35V13.62A10.63,10.63,0,0,0,68,3Z"/><path class="cls-3" d="M40.93,41.3c-.34.79.11,1.35,0,4.38,0,.78-3.59,4.6-5,8.52s-1.57,7.85.56,9.54,4.15-5.28,4.49-4.27a6.49,6.49,0,0,0,.45,1.35A18.16,18.16,0,0,0,45,66.65c.34.45-2.13,1.12-3.59,3.59s.45,7,7.74,7c9.42,0,11.44-3.26,11.67-3.26h1.45a5.07,5.07,0,0,0,1.35,0c.45,0,5,3.93,11.33,3.26,10.77-1.12,9.08-4.71,8.3-7s-4-3.47-3.81-3.59c2.58-2.8,3-4.6,3.81-7.18.34-1.12,2.8,6,4.82,4.27.79-.68,2.36-3.48.79-9.54s-4.71-7.4-4.6-8.52a15.23,15.23,0,0,0-.11-4.38c-.56-2-1.8-1.57-1.8-2,0-11.89-8.86-21.42-19.85-21.42S42.61,27.51,42.61,39.28c-.11.9-1,.23-1.68,2Z"/><path class="cls-2" d="M73.47,77.39a19,19,0,0,1-9.93-3.15l-.22-.14a3.07,3.07,0,0,1-.61,0,3,3,0,0,0-.47,0h-.91c-2.58,2.18-6.66,3.26-12.21,3.26-4.23,0-7.49-1.47-8.95-4a5.17,5.17,0,0,1-.08-5.2,9.49,9.49,0,0,1,2.82-3,19.8,19.8,0,0,1-2.35-3.77A5.14,5.14,0,0,1,37.67,64a2.57,2.57,0,0,1-2.11-.47c-3.06-2.41-2.56-7.4-1.08-11.27a30.93,30.93,0,0,1,3.92-6.72c.39-.55.87-1.22,1-1.52a19.47,19.47,0,0,0-.08-2.62,3.84,3.84,0,0,1,.18-2.06,3.61,3.61,0,0,1,1.58-2C41.4,25,50.87,15,62.47,15s20.92,9.83,21.34,22.08a3.71,3.71,0,0,1,1.72,2.35c.25.62.35,1.67.21,4.77.11.16.34.44.54.67a17.93,17.93,0,0,1,4,7.59c1.56,6,.3,9.72-1.26,11.06a2.51,2.51,0,0,1-2.06.58c-1.33-.23-2.35-1.48-3.2-2.8a14,14,0,0,1-2.1,3.66,7.45,7.45,0,0,1,3,3.39l.1.27c.41,1.17,1.11,3.12,0,5-1.27,2-4.31,3.2-9.6,3.75A14.53,14.53,0,0,1,73.47,77.39Zm-9.88-6.33a2.82,2.82,0,0,1,1.52.62c1.53.94,5.11,3.14,9.65,2.65,5.48-.58,7-1.73,7.37-2.36s.14-1.31-.24-2.36l-.09-.25c-.45-1.19-2-2.06-2.71-2.48a1.83,1.83,0,0,1-1.2-1.63,1.5,1.5,0,0,1,.41-1h0a13.06,13.06,0,0,0,3.36-6.2l.12-.4a1.65,1.65,0,0,1,1.35-1.18c1.16-.14,1.68.74,2.48,2.07A13.79,13.79,0,0,0,87.27,61c.42-.7,1.36-2.92.11-7.75A15,15,0,0,0,84,46.78c-.72-.86-1.35-1.6-1.24-2.63a20.62,20.62,0,0,0,0-3.64,1.07,1.07,0,0,1-.07-.19c-.17-.6-.3-.65-.53-.73a1.75,1.75,0,0,1-1.32-1.69c0-11-8.23-19.92-18.35-19.92S44.11,26.92,44.11,37.9a1.15,1.15,0,0,1,0,.19,2.19,2.19,0,0,1-1.33,1.77c-.17.09-.26.13-.43.59l0,.06h0a4.11,4.11,0,0,0,0,.64,22,22,0,0,1,.09,3.19c0,.74-.5,1.43-1.59,3a28.2,28.2,0,0,0-3.55,6C36,56.61,36,59.72,37.15,61a12.69,12.69,0,0,0,1.55-2.44c.65-1.23,1.12-2.13,2.27-2a1.58,1.58,0,0,1,1.38,1.12.49.49,0,0,1,0,.11,5.09,5.09,0,0,0,.33,1,1.22,1.22,0,0,1,.07.17,16.88,16.88,0,0,0,3.3,5.34l.08.09a1.68,1.68,0,0,1,.31,1.26c-.13.8-.74,1.21-1.38,1.64a7.44,7.44,0,0,0-2.43,2.36,2.19,2.19,0,0,0,.1,2.18c.43.76,1.91,2.51,6.35,2.51,3.45,0,8.07-.47,10.44-2.69a1.74,1.74,0,0,1,1.23-.57h1.45a5.24,5.24,0,0,1,.84,0l.3,0ZM37.37,61.18h0Zm47.29-2.66h0Zm1.07-14.21v0Zm-46.3-.1v0Zm43.34-3.62h0Zm-41.84-.67h0Z"/><path class="cls-1" d="M59,24.83A1.5,1.5,0,0,1,58.38,22a13,13,0,0,1,1.28-.48,1.5,1.5,0,1,1,1,2.84c-.37.12-.72.26-1.07.4A1.51,1.51,0,0,1,59,24.83Z"/><path class="cls-1" d="M49.1,35.43a1.61,1.61,0,0,1-.48-.08,1.51,1.51,0,0,1-.95-1.9,21.46,21.46,0,0,1,5.62-8.25,1.5,1.5,0,1,1,2,2.23,18.26,18.26,0,0,0-4.77,7A1.5,1.5,0,0,1,49.1,35.43Z"/><path class="cls-2" d="M14.94,49a1.5,1.5,0,0,1-1.5-1.5V31.33a1.5,1.5,0,0,1,3,0V47.54A1.5,1.5,0,0,1,14.94,49Z"/><path class="cls-2" d="M14.94,25.88a1.5,1.5,0,0,1-1.5-1.5V22.07a1.5,1.5,0,0,1,3,0v2.31A1.5,1.5,0,0,1,14.94,25.88Z"/></g></g></svg>