<svg xmlns="http://www.w3.org/2000/svg" viewBox="0 0 67.5 65.22"><defs><style>.cls-1{fill:#289cff;}.cls-2{fill:#fff;}.cls-3{fill:#16171d;}</style></defs><title>资源 7</title><g id="图层_2" data-name="图层 2"><g id="图层_1-2" data-name="图层 1"><rect class="cls-1" x="5.28" y="1.5" width="27.65" height="27.65" rx="4.16" ry="4.16"/><rect class="cls-1" x="5.28" y="36.06" width="27.65" height="27.65" rx="4.16" ry="4.16"/><path class="cls-2" d="M57.62,3.86a13.82,13.82,0,0,1,6.1,11.47h0A13.83,13.83,0,0,1,49.89,29.15h0A13.83,13.83,0,0,1,36.06,15.33h0A13.83,13.83,0,0,1,49.89,1.5h0a13.78,13.78,0,0,1,7.73,2.36"/><rect class="cls-1" x="39.85" y="36.06" width="27.65" height="27.65" rx="4.16" ry="4.16"/><path class="cls-3" d="M25,30.65H5.66A5.67,5.67,0,0,1,0,25V5.66A5.67,5.67,0,0,1,5.66,0H25a5.67,5.67,0,0,1,5.66,5.66V25A5.67,5.67,0,0,1,25,30.65ZM5.66,3A2.66,2.66,0,0,0,3,5.66V25a2.66,2.66,0,0,0,2.66,2.66H25A2.66,2.66,0,0,0,27.65,25V5.66A2.66,2.66,0,0,0,25,3Z"/><path class="cls-3" d="M25,65.22H5.66A5.67,5.67,0,0,1,0,59.55V40.23a5.67,5.67,0,0,1,5.66-5.67H25a5.67,5.67,0,0,1,5.66,5.67V59.55A5.67,5.67,0,0,1,25,65.22ZM5.66,37.56A2.67,2.67,0,0,0,3,40.23V59.55a2.67,2.67,0,0,0,2.66,2.67H25a2.67,2.67,0,0,0,2.66-2.67V40.23A2.67,2.67,0,0,0,25,37.56Z"/><path class="cls-3" d="M59.55,65.22H40.23a5.67,5.67,0,0,1-5.67-5.67V40.23a5.67,5.67,0,0,1,5.67-5.67H59.55a5.67,5.67,0,0,1,5.67,5.67V59.55A5.67,5.67,0,0,1,59.55,65.22ZM40.23,37.56a2.68,2.68,0,0,0-2.67,2.67V59.55a2.68,2.68,0,0,0,2.67,2.67H59.55a2.68,2.68,0,0,0,2.67-2.67V40.23a2.68,2.68,0,0,0-2.67-2.67Z"/><path class="cls-3" d="M49.89,30.65a15.33,15.33,0,1,1,8.57-28A1.5,1.5,0,1,1,56.78,5.1a12.33,12.33,0,1,0,2.47,18.24,1.5,1.5,0,0,1,2.28,1.95A15.3,15.3,0,0,1,49.89,30.65Z"/><path class="cls-3" d="M63.18,20.66a1.52,1.52,0,0,1-.42-.06,1.5,1.5,0,0,1-1-1.85A12.29,12.29,0,0,0,60.25,8.64,1.5,1.5,0,1,1,62.76,7a15.23,15.23,0,0,1,2.46,8.32,15.64,15.64,0,0,1-.6,4.25A1.51,1.51,0,0,1,63.18,20.66Z"/><path class="cls-2" d="M10.19,59.17a1.5,1.5,0,0,1-1.5-1.5V52.48a1.5,1.5,0,0,1,3,0v5.19A1.5,1.5,0,0,1,10.19,59.17Z"/><path class="cls-2" d="M10.19,48.8a1.5,1.5,0,0,1-1.5-1.5V45.57a1.5,1.5,0,0,1,3,0V47.3A1.5,1.5,0,0,1,10.19,48.8Z"/></g></g></svg>