<svg xmlns="http://www.w3.org/2000/svg" viewBox="0 0 71.5 59.5"><defs><style>.cls-1{fill:#289cff;}.cls-2{fill:#16171d;}.cls-3{fill:#fff;}</style></defs><title>资源 20</title><g id="图层_2" data-name="图层 2"><g id="图层_1-2" data-name="图层 1"><path class="cls-1" d="M63.5,1.5h-48A7.76,7.76,0,0,0,7.5,9V42.47c0,4.09,3.6,7.45,8,7.45h48c4.4,0,8-3.36,8-7.45V9a7.76,7.76,0,0,0-8-7.45Z"/><path class="cls-2" d="M59.5,51.42h-48a9.25,9.25,0,0,1-9.5-9V9A9.24,9.24,0,0,1,11.5,0h48A9.24,9.24,0,0,1,69,9V42.47A9.25,9.25,0,0,1,59.5,51.42ZM11.5,3A6.25,6.25,0,0,0,5,9V42.47a6.25,6.25,0,0,0,6.5,6h48a6.25,6.25,0,0,0,6.5-6V9A6.25,6.25,0,0,0,59.5,3Z"/><path class="cls-2" d="M69.5,59.5H1.5a1.5,1.5,0,0,1,0-3h68a1.5,1.5,0,0,1,0,3Z"/><path class="cls-3" d="M28,35.25A1.48,1.48,0,0,1,27,34.79L19.46,27a1.51,1.51,0,0,1,0-2.09L27,17.2a1.5,1.5,0,1,1,2.16,2.08L22.62,26l6.5,6.71A1.5,1.5,0,0,1,28,35.25Z"/><path class="cls-3" d="M51,35.25a1.5,1.5,0,0,1-1.08-2.54L56.38,26l-6.5-6.72A1.5,1.5,0,0,1,52,17.2L59.54,25a1.51,1.51,0,0,1,0,2.09L52,34.79A1.48,1.48,0,0,1,51,35.25Z"/><path class="cls-3" d="M37.5,39l-.26,0A1.5,1.5,0,0,1,36,37.24l4-23a1.5,1.5,0,0,1,3,.51l-4,23A1.51,1.51,0,0,1,37.5,39Z"/></g></g></svg>