<svg xmlns="http://www.w3.org/2000/svg" viewBox="0 0 90 90"><defs><style>.cls-1{fill:#606060;opacity:0;}.cls-2{fill:#fff;}.cls-3{fill:#16171d;}.cls-4{fill:#64b8ff;}</style></defs><title>资源 1</title><g id="图层_2" data-name="图层 2"><g id="图层_1-2" data-name="图层 1"><rect class="cls-1" width="90" height="90"/><path class="cls-2" d="M78.12,15H32.64L31,11.74,24.57,9.59h-4.3C15.23,7.9,12.81,12.8,12,15H10.77A9.92,9.92,0,0,0,2,24.84v49a9.9,9.9,0,0,0,9.88,9.88H78.12A9.9,9.9,0,0,0,88,73.88v-49A9.91,9.91,0,0,0,78.12,15Z"/><path class="cls-3" d="M78.12,85.26H11.88A11.39,11.39,0,0,1,.5,73.88v-49A11.37,11.37,0,0,1,10.6,13.53a1.5,1.5,0,0,1,.34,3A8.38,8.38,0,0,0,3.5,24.84v49a8.39,8.39,0,0,0,8.38,8.38H78.12a8.39,8.39,0,0,0,8.38-8.38v-49a8.39,8.39,0,0,0-8.38-8.38H31.66a1.5,1.5,0,0,1,0-3H78.12A11.39,11.39,0,0,1,89.5,24.84v49A11.39,11.39,0,0,1,78.12,85.26Z"/><rect class="cls-4" x="14.9" y="4.74" width="21.5" height="68.8" rx="10.75" ry="10.75"/><rect class="cls-4" x="42.68" y="22.94" width="34.73" height="10.42" rx="2.3" ry="2.3"/><path class="cls-3" d="M75.11,34.86H45a3.81,3.81,0,0,1-3.81-3.8V25.24A3.81,3.81,0,0,1,45,21.44H75.11a3.81,3.81,0,0,1,3.81,3.8v5.82A3.81,3.81,0,0,1,75.11,34.86ZM45,24.44a.82.82,0,0,0-.81.8v5.82a.82.82,0,0,0,.81.8H75.11a.82.82,0,0,0,.81-.8V25.24a.82.82,0,0,0-.81-.8Z"/><rect class="cls-4" x="42.93" y="41.55" width="7.61" height="7.61" rx="1.68" ry="1.68"/><path class="cls-3" d="M48.86,50.65H44.61a3.18,3.18,0,0,1-3.18-3.18V43.23a3.18,3.18,0,0,1,3.18-3.18h4.25A3.18,3.18,0,0,1,52,43.23v4.24A3.18,3.18,0,0,1,48.86,50.65Zm-4.25-7.6a.19.19,0,0,0-.18.18v4.24a.19.19,0,0,0,.18.18h4.25a.18.18,0,0,0,.18-.18V43.23a.18.18,0,0,0-.18-.18Z"/><rect class="cls-4" x="56.25" y="41.55" width="7.61" height="7.61" rx="1.68" ry="1.68"/><path class="cls-3" d="M62.17,50.65H57.93a3.18,3.18,0,0,1-3.18-3.18V43.23a3.18,3.18,0,0,1,3.18-3.18h4.24a3.18,3.18,0,0,1,3.18,3.18v4.24A3.18,3.18,0,0,1,62.17,50.65Zm-4.24-7.6a.18.18,0,0,0-.18.18v4.24a.18.18,0,0,0,.18.18h4.24a.18.18,0,0,0,.18-.18V43.23a.18.18,0,0,0-.18-.18Z"/><rect class="cls-4" x="69.56" y="41.55" width="7.61" height="7.61" rx="1.68" ry="1.68"/><path class="cls-3" d="M75.49,50.65H71.24a3.18,3.18,0,0,1-3.18-3.18V43.23a3.18,3.18,0,0,1,3.18-3.18h4.25a3.18,3.18,0,0,1,3.18,3.18v4.24A3.18,3.18,0,0,1,75.49,50.65Zm-4.25-7.6a.18.18,0,0,0-.18.18v4.24a.18.18,0,0,0,.18.18h4.25a.19.19,0,0,0,.18-.18V43.23a.19.19,0,0,0-.18-.18Z"/><rect class="cls-4" x="42.93" y="54.86" width="7.61" height="7.61" rx="1.68" ry="1.68"/><path class="cls-3" d="M48.86,64H44.61a3.19,3.19,0,0,1-3.18-3.18V56.54a3.19,3.19,0,0,1,3.18-3.18h4.25A3.19,3.19,0,0,1,52,56.54v4.25A3.19,3.19,0,0,1,48.86,64Zm-4.25-7.61a.19.19,0,0,0-.18.18v4.25a.19.19,0,0,0,.18.18h4.25a.19.19,0,0,0,.18-.18V56.54a.18.18,0,0,0-.18-.18Z"/><rect class="cls-4" x="56.25" y="54.86" width="7.61" height="7.61" rx="1.68" ry="1.68"/><path class="cls-3" d="M62.17,64H57.93a3.18,3.18,0,0,1-3.18-3.18V56.54a3.18,3.18,0,0,1,3.18-3.18h4.24a3.18,3.18,0,0,1,3.18,3.18v4.25A3.18,3.18,0,0,1,62.17,64Zm-4.24-7.61a.18.18,0,0,0-.18.18v4.25a.19.19,0,0,0,.18.18h4.24a.19.19,0,0,0,.18-.18V56.54a.18.18,0,0,0-.18-.18Z"/><rect class="cls-4" x="69.56" y="54.86" width="7.61" height="7.61" rx="1.68" ry="1.68"/><path class="cls-3" d="M75.49,64H71.24a3.19,3.19,0,0,1-3.18-3.18V56.54a3.19,3.19,0,0,1,3.18-3.18h4.25a3.19,3.19,0,0,1,3.18,3.18v4.25A3.19,3.19,0,0,1,75.49,64Zm-4.25-7.61a.18.18,0,0,0-.18.18v4.25a.19.19,0,0,0,.18.18h4.25a.19.19,0,0,0,.18-.18V56.54a.19.19,0,0,0-.18-.18Z"/><rect class="cls-4" x="42.93" y="68.17" width="7.61" height="7.61" rx="1.68" ry="1.68"/><path class="cls-3" d="M48.86,77.28H44.61a3.19,3.19,0,0,1-3.18-3.18V69.85a3.19,3.19,0,0,1,3.18-3.18h4.25A3.19,3.19,0,0,1,52,69.85V74.1A3.19,3.19,0,0,1,48.86,77.28Zm-4.25-7.61a.19.19,0,0,0-.18.18V74.1a.19.19,0,0,0,.18.18h4.25A.18.18,0,0,0,49,74.1V69.85a.19.19,0,0,0-.18-.18Z"/><rect class="cls-4" x="56.25" y="68.17" width="7.61" height="7.61" rx="1.68" ry="1.68"/><path class="cls-3" d="M62.17,77.28H57.93a3.18,3.18,0,0,1-3.18-3.18V69.85a3.18,3.18,0,0,1,3.18-3.18h4.24a3.18,3.18,0,0,1,3.18,3.18V74.1A3.18,3.18,0,0,1,62.17,77.28Zm-4.24-7.61a.19.19,0,0,0-.18.18V74.1a.18.18,0,0,0,.18.18h4.24a.18.18,0,0,0,.18-.18V69.85a.19.19,0,0,0-.18-.18Z"/><rect class="cls-4" x="69.56" y="68.17" width="7.61" height="7.61" rx="1.68" ry="1.68"/><path class="cls-3" d="M75.49,77.28H71.24a3.19,3.19,0,0,1-3.18-3.18V69.85a3.19,3.19,0,0,1,3.18-3.18h4.25a3.19,3.19,0,0,1,3.18,3.18V74.1A3.19,3.19,0,0,1,75.49,77.28Zm-4.25-7.61a.19.19,0,0,0-.18.18V74.1a.18.18,0,0,0,.18.18h4.25a.19.19,0,0,0,.18-.18V69.85a.19.19,0,0,0-.18-.18Z"/><path class="cls-3" d="M21.35,77.28A12.26,12.26,0,0,1,9.1,65V17.73a12.25,12.25,0,1,1,24.5,0V65A12.26,12.26,0,0,1,21.35,77.28Zm0-68.8a9.26,9.26,0,0,0-9.25,9.25V65a9.25,9.25,0,0,0,18.5,0V17.73A9.26,9.26,0,0,0,21.35,8.48Z"/><path class="cls-2" d="M23.5,40.73a1.5,1.5,0,0,1-1.5-1.5V19.88a1.5,1.5,0,1,1,3,0V39.23A1.5,1.5,0,0,1,23.5,40.73Z"/><path class="cls-2" d="M23.5,53.63a1.5,1.5,0,0,1-1.5-1.5V45.68a1.5,1.5,0,0,1,3,0v6.45A1.5,1.5,0,0,1,23.5,53.63Z"/></g></g></svg>