<svg xmlns="http://www.w3.org/2000/svg" viewBox="0 0 75 63.55"><defs><style>.cls-1{fill:#289cff;}.cls-2{fill:#16171d;}.cls-3{fill:#fff;}</style></defs><title>资源 21</title><g id="图层_2" data-name="图层 2"><g id="图层_1-2" data-name="图层 1"><path class="cls-1" d="M37.94,50.16H60.38a10,10,0,0,0,10-10V11.5a10,10,0,0,0-10-10H15.5a10,10,0,0,0-10,10V40.16a10,10,0,0,0,10,10h7V60.71Z"/><path class="cls-2" d="M17,63.55V51.66H11.5A11.51,11.51,0,0,1,0,40.16V11.5A11.51,11.51,0,0,1,11.5,0H56.38a11.51,11.51,0,0,1,11.5,11.5V40.16a11.51,11.51,0,0,1-11.5,11.5h-22ZM11.5,3A8.51,8.51,0,0,0,3,11.5V40.16a8.51,8.51,0,0,0,8.5,8.5H20v9.2l13.45-9.2h22.9a8.51,8.51,0,0,0,8.5-8.5V11.5A8.51,8.51,0,0,0,56.38,3Z"/><path class="cls-3" d="M51.62,53.59H36.48a6.75,6.75,0,0,1-6.75-6.74V27.52a6.75,6.75,0,0,1,6.75-6.75H66.75a6.75,6.75,0,0,1,6.75,6.75V46.85a6.75,6.75,0,0,1-6.75,6.74H62v7.12Z"/><path class="cls-2" d="M63.51,63.55,51.15,55.09H36.48a8.26,8.26,0,0,1-8.25-8.24V27.52a8.26,8.26,0,0,1,8.25-8.25H66.75A8.26,8.26,0,0,1,75,27.52V46.85a8.26,8.26,0,0,1-8.25,8.24H63.51Zm-27-41.28a5.26,5.26,0,0,0-5.25,5.25V46.85a5.25,5.25,0,0,0,5.25,5.24h15.6l8.43,5.77V52.09h6.24A5.25,5.25,0,0,0,72,46.85V27.52a5.25,5.25,0,0,0-5.25-5.25Z"/><path class="cls-3" d="M12.59,41a1.5,1.5,0,0,1-1.5-1.5V26.11a1.5,1.5,0,0,1,3,0V39.49A1.5,1.5,0,0,1,12.59,41Z"/><path class="cls-3" d="M12.59,21.88a1.5,1.5,0,0,1-1.5-1.5V18.47a1.5,1.5,0,0,1,3,0v1.91A1.5,1.5,0,0,1,12.59,21.88Z"/><circle class="cls-1" cx="39.82" cy="37.34" r="3.63"/><circle class="cls-1" cx="51.62" cy="37.34" r="3.63"/><circle class="cls-1" cx="63.42" cy="37.34" r="3.63"/></g></g></svg>