<svg xmlns="http://www.w3.org/2000/svg" viewBox="0 0 68 65.4"><defs><style>.cls-1{fill:#289cff;}.cls-2{fill:#16171d;}.cls-3{fill:#fff;}</style></defs><title>资源 18</title><g id="图层_2" data-name="图层 2"><g id="图层_1-2" data-name="图层 1"><path class="cls-1" d="M34.06-1.64H46.15a4.33,4.33,0,0,1,4.33,4.33V59a0,0,0,0,1,0,0H29.73a0,0,0,0,1,0,0V2.69a4.33,4.33,0,0,1,4.33-4.33Z" transform="translate(32.02 -19.96) rotate(45)"/><path class="cls-2" d="M22,58.94h0A1.46,1.46,0,0,1,21,58.5L6.27,43.83a1.51,1.51,0,0,1,0-2.12L46.08,1.9a5.85,5.85,0,0,1,8.25,0l8.55,8.55a5.85,5.85,0,0,1,0,8.25L23.07,58.5A1.46,1.46,0,0,1,22,58.94ZM9.46,42.77,22,55.32,60.75,16.58a2.83,2.83,0,0,0,0-4L52.21,4a2.85,2.85,0,0,0-4,0Z"/><path class="cls-2" d="M1.5,64a1.53,1.53,0,0,1-1.09-.47A1.51,1.51,0,0,1,.06,62.1l6-20a1.5,1.5,0,0,1,1.87-1,1.52,1.52,0,0,1,1,1.87L3.69,60.43l17.45-4.36A1.5,1.5,0,0,1,21.86,59l-20,5A1.49,1.49,0,0,1,1.5,64Z"/><path class="cls-2" d="M56.43,24.53a1.49,1.49,0,0,1-1.06-.44L40.69,9.41a1.51,1.51,0,0,1,0-2.12,1.49,1.49,0,0,1,2.12,0L57.49,22a1.49,1.49,0,0,1,0,2.12A1.51,1.51,0,0,1,56.43,24.53Z"/><path class="cls-1" d="M33.56,14.15,22.07,2.65a4,4,0,0,0-5.58,0L6.75,12.39a4,4,0,0,0,0,5.58L18,29.18Z"/><path class="cls-2" d="M5.67,20.77a1.51,1.51,0,0,1-1.06-.44,1.49,1.49,0,0,1,0-2.12l7.3-7.31a1.51,1.51,0,0,1,2.12,0A1.49,1.49,0,0,1,14,13l-7.3,7.31A1.51,1.51,0,0,1,5.67,20.77Z"/><path class="cls-2" d="M9.84,24.94a1.53,1.53,0,0,1-1.06-.44,1.51,1.51,0,0,1,0-2.12l5.74-5.74a1.51,1.51,0,0,1,2.12,0,1.49,1.49,0,0,1,0,2.12L10.9,24.5A1.49,1.49,0,0,1,9.84,24.94Z"/><path class="cls-1" d="M55.58,36,66.85,47.43a4,4,0,0,1,0,5.58l-9.74,9.74a4,4,0,0,1-5.58,0L39.9,51.12,55.58,36"/><path class="cls-2" d="M50.32,65.4a5.42,5.42,0,0,1-3.85-1.59L34.84,52.18a1.5,1.5,0,0,1,0-2.14L50.54,34.88a1.5,1.5,0,0,1,2.11,0L63.91,46.38a5.44,5.44,0,0,1,0,7.69l-9.74,9.74A5.44,5.44,0,0,1,50.32,65.4ZM38,51.14,48.59,61.69a2.46,2.46,0,0,0,3.46,0L61.78,52a2.43,2.43,0,0,0,0-3.45L51.55,38.08Z"/><path class="cls-2" d="M41.15,56.24a1.49,1.49,0,0,1-1.07-.44,1.51,1.51,0,0,1,0-2.12l5.74-5.74A1.51,1.51,0,1,1,48,50.07L42.21,55.8A1.48,1.48,0,0,1,41.15,56.24Z"/><path class="cls-2" d="M44.28,61a1.49,1.49,0,0,1-1.07-.44,1.51,1.51,0,0,1,0-2.12l8.64-8.63A1.5,1.5,0,0,1,54,51.92l-8.63,8.63A1.48,1.48,0,0,1,44.28,61Z"/><path class="cls-2" d="M14,30.68a1.51,1.51,0,0,1-1.06-.44L1.69,19a5.46,5.46,0,0,1,0-7.7l9.74-9.74a5.46,5.46,0,0,1,7.7,0l11.49,11.5a1.48,1.48,0,0,1,.44,1.08,1.42,1.42,0,0,1-.46,1.06L15,30.26A1.48,1.48,0,0,1,14,30.68ZM15.28,3a2.39,2.39,0,0,0-1.73.72L3.81,13.45a2.46,2.46,0,0,0,0,3.46L14,27.08,27.42,14.13,17,3.72A2.38,2.38,0,0,0,15.28,3Z"/><path class="cls-3" d="M28.19,33.34a1.5,1.5,0,0,1-1.06-2.56L40.94,17a1.5,1.5,0,0,1,2.12,2.12L29.25,32.9A1.53,1.53,0,0,1,28.19,33.34Z"/><path class="cls-3" d="M20.5,41a1.51,1.51,0,0,1-1.06-.44,1.49,1.49,0,0,1,0-2.12L24,33.9A1.5,1.5,0,0,1,26.13,36l-4.57,4.57A1.51,1.51,0,0,1,20.5,41Z"/></g></g></svg>